<svg width="16" height="16" viewBox="0 0 16 16" fill="none" xmlns="http://www.w3.org/2000/svg">
<path d="M10.2083 2.15001L6.04167 0.691681C5.69167 0.566681 5.30833 0.566681 4.95833 0.683348L1.63333 1.80001C0.958333 2.03335 0.5 2.66668 0.5 3.38335V13.2583C0.5 14.4333 1.675 15.2333 2.76667 14.8083L5.20833 13.8583C5.39167 13.7833 5.6 13.7833 5.78333 13.85L9.95 15.3083C10.3 15.4333 10.6833 15.4333 11.0333 15.3167L14.3583 14.2C15.0333 13.975 15.4917 13.3333 15.4917 12.6167V2.74168C15.4917 1.56668 14.3167 0.766681 13.225 1.19168L10.7833 2.14168C10.6 2.20835 10.4 2.21668 10.2083 2.15001ZM10.5 13.7417L5.5 11.9833V2.25835L10.5 4.01668V13.7417Z" fill="#142637"/>
</svg>
