<svg width="246" height="48" viewBox="0 0 246 48" fill="none" xmlns="http://www.w3.org/2000/svg">
<path d="M13.6731 19.0578L21.0731 14.8293L28.1117 19.0524L21.0637 23.105L13.6731 19.0578Z" fill="#142637"/>
<path d="M12.8779 20.402V28.4878L20.2926 32.7247V24.4624L12.8779 20.402Z" fill="#142637"/>
<path d="M21.8535 32.7024L28.8779 28.4878V20.4125L21.8535 24.4515V32.7024Z" fill="#142637"/>
<path d="M6.63415 39.7465L0 35.9024V12.0976L20.878 0L41.7561 12.0976V35.9024L20.878 48L12.878 43.3645V35.9826L20.878 40.5854L35.1219 32.3902V15.6098L20.878 7.41463L6.63415 15.6098V39.7465Z" fill="#DC223E"/>
<path d="M58.4896 39.6097L55.7688 37.173V39.6097H54.8291V34.1463H55.7688V36.5721L58.1946 34.1463H59.3856L56.7085 36.8234L59.7899 39.6097H58.4896Z" fill="#142637"/>
<path d="M62.6756 39.719C61.8524 39.719 61.1677 39.4458 60.6213 38.8995C60.0823 38.3459 59.8128 37.672 59.8128 36.878C59.8128 36.084 60.0823 35.4138 60.6213 34.8675C61.1677 34.3139 61.8524 34.037 62.6756 34.037C63.4915 34.037 64.1689 34.3139 64.708 34.8675C65.2543 35.4138 65.5275 36.084 65.5275 36.878C65.5275 37.672 65.2543 38.3459 64.708 38.8995C64.1689 39.4458 63.4915 39.719 62.6756 39.719ZM61.2988 38.2767C61.6558 38.6555 62.1147 38.8449 62.6756 38.8449C63.2365 38.8449 63.6918 38.6555 64.0414 38.2767C64.3911 37.8979 64.5659 37.4317 64.5659 36.878C64.5659 36.3244 64.3911 35.8582 64.0414 35.4794C63.6918 35.1006 63.2365 34.9112 62.6756 34.9112C62.1147 34.9112 61.6558 35.1006 61.2988 35.4794C60.9492 35.8582 60.7743 36.3244 60.7743 36.878C60.7743 37.4317 60.9492 37.8979 61.2988 38.2767Z" fill="#142637"/>
<path d="M66.8764 34.1463H67.7396L69.761 36.8343L71.7934 34.1463H72.6567V39.6097H71.7169V35.6651L69.761 38.2439L67.8161 35.6651V39.6097H66.8764V34.1463Z" fill="#142637"/>
<path d="M74.4312 34.1463H75.2945L77.3159 36.8343L79.3483 34.1463H80.2115V39.6097H79.2718V35.6651L77.3159 38.2439L75.3709 35.6651V39.6097H74.4312V34.1463Z" fill="#142637"/>
<path d="M84.39 39.719C83.5523 39.719 82.8712 39.4495 82.3467 38.9104C81.8222 38.3714 81.56 37.6939 81.56 36.878C81.56 36.0694 81.8259 35.3956 82.3576 34.8566C82.8894 34.3102 83.5705 34.037 84.4009 34.037C85.1367 34.037 85.7522 34.2847 86.2476 34.7801C86.7502 35.2681 87.0015 35.9347 87.0015 36.7797C87.0015 36.889 86.9979 36.9837 86.9906 37.0638H82.5106C82.5252 37.5737 82.7073 37.9998 83.0569 38.3422C83.4139 38.6846 83.8619 38.8558 84.4009 38.8558C85.1658 38.8558 85.734 38.5389 86.1055 37.9051L86.8486 38.4187C86.3168 39.2856 85.4973 39.719 84.39 39.719ZM82.5762 36.2989H86.04C85.9671 35.8618 85.7741 35.5158 85.4608 35.2609C85.1549 34.9986 84.7907 34.8675 84.3682 34.8675C83.9384 34.8675 83.5523 34.9986 83.2099 35.2609C82.8748 35.5158 82.6636 35.8618 82.5762 36.2989Z" fill="#142637"/>
<path d="M89.2749 41.8934H88.3352V34.1463H89.2749V34.9877C89.4643 34.7109 89.7302 34.485 90.0726 34.3102C90.4222 34.1281 90.7974 34.037 91.198 34.037C91.9556 34.037 92.5894 34.3139 93.0993 34.8675C93.6165 35.4211 93.8751 36.0913 93.8751 36.878C93.8751 37.6648 93.6165 38.3349 93.0993 38.8886C92.5894 39.4422 91.9556 39.719 91.198 39.719C90.7974 39.719 90.4222 39.6316 90.0726 39.4568C89.7302 39.2746 89.4643 39.0452 89.2749 38.7684V41.8934ZM89.7229 38.2876C90.0726 38.6664 90.5169 38.8558 91.056 38.8558C91.595 38.8558 92.0394 38.6664 92.3891 38.2876C92.7387 37.9088 92.9135 37.4389 92.9135 36.878C92.9135 36.3171 92.7387 35.8473 92.3891 35.4685C92.0394 35.0897 91.595 34.9003 91.056 34.9003C90.5169 34.9003 90.0726 35.0897 89.7229 35.4685C89.3732 35.8473 89.1984 36.3171 89.1984 36.878C89.1984 37.4389 89.3732 37.9088 89.7229 38.2876Z" fill="#142637"/>
<path d="M99.3916 39.6097H98.4519V37.0638C98.3062 37.2896 98.084 37.4681 97.7854 37.5992C97.4867 37.7303 97.1516 37.7959 96.7801 37.7959C96.1682 37.7959 95.6801 37.621 95.3159 37.2714C94.959 36.9217 94.7805 36.43 94.7805 35.7963V34.1463H95.7202V35.6979C95.7202 36.5284 96.1463 36.9436 96.9986 36.9436C97.3702 36.9436 97.7052 36.8161 98.0039 36.5611C98.3026 36.2989 98.4519 35.931 98.4519 35.4575V34.1463H99.3916V39.6097Z" fill="#142637"/>
<path d="M103.565 39.719C102.728 39.719 102.046 39.4495 101.522 38.9104C100.998 38.3714 100.735 37.6939 100.735 36.878C100.735 36.0694 101.001 35.3956 101.533 34.8566C102.065 34.3102 102.746 34.037 103.576 34.037C104.312 34.037 104.928 34.2847 105.423 34.7801C105.926 35.2681 106.177 35.9347 106.177 36.7797C106.177 36.889 106.173 36.9837 106.166 37.0638H101.686C101.7 37.5737 101.883 37.9998 102.232 38.3422C102.589 38.6846 103.037 38.8558 103.576 38.8558C104.341 38.8558 104.909 38.5389 105.281 37.9051L106.024 38.4187C105.492 39.2856 104.673 39.719 103.565 39.719ZM101.751 36.2989H105.215C105.142 35.8618 104.949 35.5158 104.636 35.2609C104.33 34.9986 103.966 34.8675 103.543 34.8675C103.114 34.8675 102.728 34.9986 102.385 35.2609C102.05 35.5158 101.839 35.8618 101.751 36.2989Z" fill="#142637"/>
<path d="M109.947 39.719C109.124 39.719 108.439 39.4458 107.893 38.8995C107.354 38.3531 107.084 37.6793 107.084 36.878C107.084 36.0767 107.354 35.4029 107.893 34.8566C108.439 34.3102 109.124 34.037 109.947 34.037C110.501 34.037 110.996 34.1682 111.433 34.4304C111.878 34.6927 112.224 35.0496 112.471 35.5012L111.652 35.9602C111.492 35.6397 111.262 35.3847 110.963 35.1953C110.672 35.0059 110.333 34.9112 109.947 34.9112C109.386 34.9112 108.927 35.1006 108.57 35.4794C108.213 35.8582 108.035 36.3244 108.035 36.878C108.035 37.4317 108.213 37.8979 108.57 38.2767C108.927 38.6555 109.386 38.8449 109.947 38.8449C110.333 38.8449 110.672 38.7502 110.963 38.5608C111.262 38.3714 111.492 38.1164 111.652 37.7959L112.471 38.2548C112.224 38.7064 111.878 39.0634 111.433 39.3256C110.996 39.5879 110.501 39.719 109.947 39.719Z" fill="#142637"/>
<path d="M117.349 39.6097L114.629 37.173V39.6097H113.689V34.1463H114.629V36.5721L117.054 34.1463H118.245L115.568 36.8234L118.65 39.6097H117.349Z" fill="#142637"/>
<path d="M121.371 39.719C120.614 39.719 119.976 39.4422 119.459 38.8886C118.949 38.3349 118.694 37.6648 118.694 36.878C118.694 36.0913 118.949 35.4211 119.459 34.8675C119.976 34.3139 120.614 34.037 121.371 34.037C121.772 34.037 122.143 34.1281 122.486 34.3102C122.835 34.485 123.105 34.7109 123.294 34.9877V34.1463H124.234V39.6097H123.294V38.7684C123.105 39.0452 122.835 39.2746 122.486 39.4568C122.143 39.6316 121.772 39.719 121.371 39.719ZM121.513 38.8558C122.052 38.8558 122.497 38.6664 122.846 38.2876C123.196 37.9088 123.371 37.4389 123.371 36.878C123.371 36.3171 123.196 35.8473 122.846 35.4685C122.497 35.0897 122.052 34.9003 121.513 34.9003C120.967 34.9003 120.519 35.0897 120.169 35.4685C119.82 35.8473 119.645 36.3171 119.645 36.878C119.645 37.4389 119.82 37.9088 120.169 38.2876C120.519 38.6664 120.967 38.8558 121.513 38.8558Z" fill="#142637"/>
<path d="M125.074 39.6097L127.281 37.4681C126.852 37.3661 126.52 37.1767 126.287 36.8999C126.054 36.6158 125.937 36.277 125.937 35.8837C125.937 35.381 126.109 34.9658 126.451 34.638C126.801 34.3102 127.292 34.1463 127.926 34.1463H129.947V39.6097H129.008V37.621H128.308L126.254 39.6097H125.074ZM127.981 36.7797H129.008V34.9877H127.981C127.245 34.9877 126.877 35.29 126.877 35.8946C126.877 36.1787 126.972 36.3972 127.161 36.5502C127.358 36.7032 127.631 36.7797 127.981 36.7797Z" fill="#142637"/>
<path d="M139.15 34.1463L136.189 40.5822C135.963 41.0849 135.708 41.4454 135.424 41.664C135.147 41.8898 134.797 42.0027 134.375 42.0027C134.105 42.0027 133.901 41.9845 133.763 41.9481V41.1176C133.872 41.1395 134.051 41.1504 134.298 41.1504C134.706 41.1504 135.034 40.8736 135.282 40.32L135.73 39.3584L133.315 34.1463H134.353L136.243 38.2657L138.101 34.1463H139.15Z" fill="#142637"/>
<path d="M140.099 39.6097V34.1463H144.841V39.6097H143.901V35.0095H141.039V39.6097H140.099Z" fill="#142637"/>
<path d="M148.859 39.719C148.101 39.719 147.464 39.4422 146.947 38.8886C146.437 38.3349 146.182 37.6648 146.182 36.878C146.182 36.0913 146.437 35.4211 146.947 34.8675C147.464 34.3139 148.101 34.037 148.859 34.037C149.26 34.037 149.631 34.1281 149.974 34.3102C150.323 34.485 150.593 34.7109 150.782 34.9877V34.1463H151.722V39.6097H150.782V38.7684C150.593 39.0452 150.323 39.2746 149.974 39.4568C149.631 39.6316 149.26 39.719 148.859 39.719ZM149.001 38.8558C149.54 38.8558 149.984 38.6664 150.334 38.2876C150.684 37.9088 150.859 37.4389 150.859 36.878C150.859 36.3171 150.684 35.8473 150.334 35.4685C149.984 35.0897 149.54 34.9003 149.001 34.9003C148.455 34.9003 148.007 35.0897 147.657 35.4685C147.307 35.8473 147.133 36.3171 147.133 36.878C147.133 37.4389 147.307 37.9088 147.657 38.2876C148.007 38.6664 148.455 38.8558 149.001 38.8558Z" fill="#142637"/>
<path d="M157.151 39.6097L154.43 37.173V39.6097H153.491V34.1463H154.43V36.5721L156.856 34.1463H158.047L155.37 36.8234L158.451 39.6097H157.151Z" fill="#142637"/>
<path d="M161.337 39.719C160.514 39.719 159.829 39.4458 159.283 38.8995C158.744 38.3459 158.474 37.672 158.474 36.878C158.474 36.084 158.744 35.4138 159.283 34.8675C159.829 34.3139 160.514 34.037 161.337 34.037C162.153 34.037 162.831 34.3139 163.37 34.8675C163.916 35.4138 164.189 36.084 164.189 36.878C164.189 37.672 163.916 38.3459 163.37 38.8995C162.831 39.4458 162.153 39.719 161.337 39.719ZM159.96 38.2767C160.317 38.6555 160.776 38.8449 161.337 38.8449C161.898 38.8449 162.353 38.6555 162.703 38.2767C163.053 37.8979 163.228 37.4317 163.228 36.878C163.228 36.3244 163.053 35.8582 162.703 35.4794C162.353 35.1006 161.898 34.9112 161.337 34.9112C160.776 34.9112 160.317 35.1006 159.96 35.4794C159.611 35.8582 159.436 36.3244 159.436 36.878C159.436 37.4317 159.611 37.8979 159.96 38.2767Z" fill="#142637"/>
<path d="M165.538 39.6097V34.1463H167.92C168.525 34.1463 168.987 34.2811 169.308 34.5506C169.628 34.8201 169.788 35.1807 169.788 35.6324C169.788 36.0622 169.61 36.4155 169.253 36.6923C169.85 36.9837 170.149 37.428 170.149 38.0253C170.149 38.4843 169.985 38.8631 169.657 39.1617C169.33 39.4604 168.838 39.6097 168.182 39.6097H165.538ZM166.478 38.7902H168.237C168.528 38.7902 168.758 38.7174 168.925 38.5717C169.1 38.426 169.187 38.2257 169.187 37.9707C169.187 37.7157 169.1 37.5191 168.925 37.3807C168.758 37.235 168.528 37.1621 168.237 37.1621H166.478V38.7902ZM166.478 36.4082H167.996C168.557 36.4082 168.838 36.1641 168.838 35.6761C168.838 35.4211 168.758 35.239 168.597 35.1297C168.437 35.0132 168.237 34.9549 167.996 34.9549H166.478V36.4082Z" fill="#142637"/>
<path d="M175.153 39.6097L172.432 37.173V39.6097H171.492V34.1463H172.432V36.5721L174.858 34.1463H176.049L173.372 36.8234L176.453 39.6097H175.153Z" fill="#142637"/>
<path d="M179.175 39.719C178.417 39.719 177.78 39.4422 177.262 38.8886C176.752 38.3349 176.497 37.6648 176.497 36.878C176.497 36.0913 176.752 35.4211 177.262 34.8675C177.78 34.3139 178.417 34.037 179.175 34.037C179.575 34.037 179.947 34.1281 180.289 34.3102C180.639 34.485 180.908 34.7109 181.098 34.9877V34.1463H182.037V39.6097H181.098V38.7684C180.908 39.0452 180.639 39.2746 180.289 39.4568C179.947 39.6316 179.575 39.719 179.175 39.719ZM179.317 38.8558C179.856 38.8558 180.3 38.6664 180.65 38.2876C180.999 37.9088 181.174 37.4389 181.174 36.878C181.174 36.3171 180.999 35.8473 180.65 35.4685C180.3 35.0897 179.856 34.9003 179.317 34.9003C178.77 34.9003 178.322 35.0897 177.973 35.4685C177.623 35.8473 177.448 36.3171 177.448 36.878C177.448 37.4389 177.623 37.9088 177.973 38.2876C178.322 38.6664 178.77 38.8558 179.317 38.8558Z" fill="#142637"/>
<path d="M54.6299 26.7317V8.5834H61.4547C62.9372 8.5834 64.2067 9.11167 65.2632 10.1682C66.3198 11.2077 66.848 12.4772 66.848 13.9768C66.848 15.1867 66.4135 16.2261 65.5444 17.0952C66.3283 17.5042 66.9503 18.0836 67.4104 18.8334C67.8875 19.5831 68.1261 20.4352 68.1261 21.3895C68.1261 22.889 67.5978 24.1586 66.5413 25.198C65.4848 26.2205 64.1726 26.7317 62.6049 26.7317H54.6299ZM58.6941 22.9998H62.2726C62.8179 22.9998 63.2695 22.8294 63.6273 22.4886C63.9852 22.1307 64.1641 21.6962 64.1641 21.185C64.1641 20.6737 63.9767 20.2477 63.6018 19.9069C63.2439 19.5491 62.7924 19.3701 62.2471 19.3701H58.6941V22.9998ZM58.6941 15.9194H60.9946C61.5399 15.9194 61.9914 15.749 62.3493 15.4082C62.7072 15.0674 62.8861 14.6414 62.8861 14.1301C62.8861 13.6189 62.7072 13.1844 62.3493 12.8265C61.9914 12.4687 61.5399 12.2897 60.9946 12.2897H58.6941V15.9194Z" fill="#142637"/>
<path d="M83.4822 24.9936C82.1019 26.3568 80.3127 27.0384 78.1144 27.0384C75.9162 27.0384 74.1184 26.3568 72.7211 24.9936C71.3408 23.6133 70.6506 21.7984 70.6506 19.5491V8.5834H74.7148V19.6002C74.7148 20.6737 75.0216 21.5258 75.635 22.1563C76.2655 22.7868 77.092 23.102 78.1144 23.102C79.1369 23.102 79.9548 22.7868 80.5683 22.1563C81.1988 21.5258 81.514 20.6737 81.514 19.6002V8.5834H85.5782V19.5491C85.5782 21.7984 84.8796 23.6133 83.4822 24.9936Z" fill="#142637"/>
<path d="M94.621 27.0384C93.1896 27.0384 91.886 26.7573 90.7102 26.1949C89.5514 25.6155 88.6142 24.8146 87.8985 23.7922L91.0169 21.1594C91.46 21.7899 92.0223 22.2926 92.704 22.6675C93.4026 23.0424 94.0928 23.2298 94.7744 23.2298C95.439 23.2298 95.9672 23.0935 96.3592 22.8209C96.7682 22.5312 96.9726 22.1648 96.9726 21.7217C96.9726 21.2616 96.7767 20.8612 96.3847 20.5204C95.9928 20.1796 95.3453 19.8558 94.4421 19.5491L93.1641 19.1145C90.1138 18.0921 88.5886 16.3454 88.5886 13.8745C88.5886 12.1534 89.168 10.7902 90.3268 9.78477C91.5026 8.77937 93.0107 8.27667 94.8511 8.27667C97.2027 8.27667 99.1538 9.11166 100.705 10.7816L98.0462 13.5934C97.2112 12.588 96.1632 12.0853 94.9022 12.0853C94.3058 12.0853 93.786 12.2045 93.343 12.4431C92.917 12.6817 92.704 13.0225 92.704 13.4656C92.704 13.9256 92.9084 14.3005 93.3174 14.5902C93.7264 14.8629 94.4591 15.1867 95.5157 15.5616L96.7937 16.0216C99.6906 17.0611 101.131 18.8674 101.114 21.4406C101.114 23.0935 100.5 24.4397 99.2731 25.4792C98.0632 26.5187 96.5125 27.0384 94.621 27.0384Z" fill="#142637"/>
<path d="M103.93 26.7317V8.5834H107.994V26.7317H103.93Z" fill="#142637"/>
<path d="M128.228 26.7317H124.726L115.882 15.5104V26.7317H111.818V8.5834H115.319L124.138 19.8047V8.5834H128.228V26.7317Z" fill="#142637"/>
<path d="M132.062 26.7317V8.5834H143.564V12.4687H136.126V15.7149H142.03V19.6002H136.126V22.8464H143.564V26.7317H132.062Z" fill="#142637"/>
<path d="M152.083 27.0384C150.652 27.0384 149.348 26.7573 148.172 26.1949C147.014 25.6155 146.076 24.8146 145.361 23.7922L148.479 21.1594C148.922 21.7899 149.485 22.2926 150.166 22.6675C150.865 23.0424 151.555 23.2298 152.237 23.2298C152.901 23.2298 153.43 23.0935 153.821 22.8209C154.23 22.5312 154.435 22.1648 154.435 21.7217C154.435 21.2616 154.239 20.8612 153.847 20.5204C153.455 20.1796 152.808 19.8558 151.904 19.5491L150.626 19.1145C147.576 18.0921 146.051 16.3454 146.051 13.8745C146.051 12.1534 146.63 10.7902 147.789 9.78477C148.965 8.77937 150.473 8.27667 152.313 8.27667C154.665 8.27667 156.616 9.11166 158.167 10.7816L155.508 13.5934C154.673 12.588 153.625 12.0853 152.364 12.0853C151.768 12.0853 151.248 12.2045 150.805 12.4431C150.379 12.6817 150.166 13.0225 150.166 13.4656C150.166 13.9256 150.371 14.3005 150.78 14.5902C151.189 14.8629 151.921 15.1867 152.978 15.5616L154.256 16.0216C157.153 17.0611 158.593 18.8674 158.576 21.4406C158.576 23.0935 157.962 24.4397 156.735 25.4792C155.526 26.5187 153.975 27.0384 152.083 27.0384Z" fill="#142637"/>
<path d="M166.811 27.0384C165.379 27.0384 164.076 26.7573 162.9 26.1949C161.741 25.6155 160.804 24.8146 160.088 23.7922L163.207 21.1594C163.65 21.7899 164.212 22.2926 164.894 22.6675C165.592 23.0424 166.283 23.2298 166.964 23.2298C167.629 23.2298 168.157 23.0935 168.549 22.8209C168.958 22.5312 169.162 22.1648 169.162 21.7217C169.162 21.2616 168.966 20.8612 168.575 20.5204C168.183 20.1796 167.535 19.8558 166.632 19.5491L165.354 19.1145C162.304 18.0921 160.778 16.3454 160.778 13.8745C160.778 12.1534 161.358 10.7902 162.517 9.78477C163.692 8.77937 165.2 8.27667 167.041 8.27667C169.392 8.27667 171.344 9.11166 172.894 10.7816L170.236 13.5934C169.401 12.588 168.353 12.0853 167.092 12.0853C166.496 12.0853 165.976 12.2045 165.533 12.4431C165.107 12.6817 164.894 13.0225 164.894 13.4656C164.894 13.9256 165.098 14.3005 165.507 14.5902C165.916 14.8629 166.649 15.1867 167.705 15.5616L168.983 16.0216C171.88 17.0611 173.32 18.8674 173.303 21.4406C173.303 23.0935 172.69 24.4397 171.463 25.4792C170.253 26.5187 168.702 27.0384 166.811 27.0384Z" fill="#142637"/>
<path d="M186.83 10.3727C188.057 11.5655 188.67 13.0395 188.67 14.7947C188.67 16.5499 188.057 18.0239 186.83 19.2168C185.62 20.3926 184.103 20.9805 182.28 20.9805H180.184V26.7317H176.12V8.5834H182.28C184.103 8.5834 185.62 9.17983 186.83 10.3727ZM184.734 14.7947C184.734 14.1131 184.495 13.5508 184.018 13.1077C183.558 12.6476 182.961 12.4176 182.229 12.4176H180.184V17.1719H182.229C182.944 17.1719 183.541 16.9418 184.018 16.4817C184.495 16.0216 184.734 15.4593 184.734 14.7947Z" fill="#DC223E"/>
<path d="M188.106 26.7317L195.876 8.5834H199.557L207.328 26.7317H203.084L201.474 22.8976H193.959L192.349 26.7317H188.106ZM197.717 13.9256L195.416 19.3701H199.992L197.717 13.9256Z" fill="#DC223E"/>
<path d="M216.754 27.0384C214.164 27.0384 211.948 26.1268 210.108 24.3034C208.285 22.463 207.373 20.2477 207.373 17.6576C207.373 15.0674 208.285 12.8606 210.108 11.0373C211.948 9.19687 214.164 8.27667 216.754 8.27667C218.611 8.27667 220.29 8.72825 221.789 9.6314C223.289 10.5346 224.439 11.7359 225.24 13.2355L221.662 15.1781C220.571 13.2014 218.935 12.2131 216.754 12.2131C215.288 12.2131 214.036 12.7498 212.996 13.8234C211.974 14.897 211.463 16.175 211.463 17.6576C211.463 19.1401 211.974 20.4181 212.996 21.4917C214.036 22.5653 215.288 23.102 216.754 23.102C218.935 23.102 220.571 22.1137 221.662 20.137L225.24 22.0796C224.439 23.5792 223.289 24.7805 221.789 25.6837C220.29 26.5869 218.611 27.0384 216.754 27.0384Z" fill="#DC223E"/>
<path d="M239.042 26.7317L231.655 18.6033V26.7317H227.616V8.5834H231.655V16.175L237.815 8.5834H242.799L235.642 17.2997L244.256 26.7317H239.042Z" fill="#DC223E"/>
</svg>
