<svg width="32" height="32" viewBox="0 0 32 32" fill="none" xmlns="http://www.w3.org/2000/svg">
<path d="M20.2 11.8067C19.94 11.5467 19.52 11.5467 19.26 11.8067L16 15.06L12.74 11.8C12.48 11.54 12.06 11.54 11.8 11.8C11.54 12.06 11.54 12.48 11.8 12.74L15.06 16L11.8 19.26C11.54 19.52 11.54 19.94 11.8 20.2C12.06 20.46 12.48 20.46 12.74 20.2L16 16.94L19.26 20.2C19.52 20.46 19.94 20.46 20.2 20.2C20.46 19.94 20.46 19.52 20.2 19.26L16.94 16L20.2 12.74C20.4533 12.4867 20.4533 12.06 20.2 11.8067Z" fill="#142637"/>
<rect x="0.5" y="0.5" width="31" height="31" rx="15.5" stroke="#142637" stroke-opacity="0.12"/>
</svg>
