<svg width="20" height="20" viewBox="0 0 20 20" fill="none" xmlns="http://www.w3.org/2000/svg">
<path fill-rule="evenodd" clip-rule="evenodd" d="M10 15.8333C13.2217 15.8333 15.8333 13.2217 15.8333 10C15.8333 6.77834 13.2217 4.16667 10 4.16667C6.77834 4.16667 4.16667 6.77834 4.16667 10C4.16667 13.2217 6.77834 15.8333 10 15.8333ZM10 17.5C14.1421 17.5 17.5 14.1421 17.5 10C17.5 5.85786 14.1421 2.5 10 2.5C5.85786 2.5 2.5 5.85786 2.5 10C2.5 14.1421 5.85786 17.5 10 17.5Z" fill="#DC223E"/>
<path d="M13.3332 9.99999C13.3332 11.8409 11.8408 13.3333 9.99984 13.3333C8.15889 13.3333 6.6665 11.8409 6.6665 9.99999C6.6665 8.15904 8.15889 6.66666 9.99984 6.66666C11.8408 6.66666 13.3332 8.15904 13.3332 9.99999Z" fill="#DC223E"/>
</svg>
